<?xml version="1.0" standalone="no"?><!DOCTYPE svg PUBLIC "-//W3C//DTD SVG 1.1//EN"
        "http://www.w3.org/Graphics/SVG/1.1/DTD/svg11.dtd">
<svg t="1686812698325" class="icon" viewBox="0 0 1024 1024" version="1.1" xmlns="http://www.w3.org/2000/svg" p-id="3015"
     xmlns:xlink="http://www.w3.org/1999/xlink">
    <path d="M381.262 1005.566c-16.132 21.51-45.708 24.198-67.217 8.066-21.51-16.132-24.198-45.708-8.066-67.217C413.526 806.604 518.384 666.792 625.932 529.67c8.066-10.755 8.066-24.198 0-34.953C518.384 354.906 413.526 215.094 305.979 77.972c-16.132-21.51-10.755-51.085 8.066-67.217C335.555-5.377 365.13 0 381.262 18.82c107.547 142.5 212.405 282.311 319.953 419.434 34.952 43.019 34.952 104.858 0 150.566-107.548 139.811-212.406 279.622-319.953 416.745"></path>
</svg>